<svg xmlns="http://www.w3.org/2000/svg" version="1.1" xmlns:xlink="http://www.w3.org/1999/xlink" xmlns:svgjs="http://svgjs.com/svgjs" width="1440" height="2560" preserveAspectRatio="none" viewBox="0 0 1440 2560"><g mask="url(&quot;#SvgjsMask1008&quot;)" fill="none"><rect width="1440" height="2560" x="0" y="0" fill="rgba(185, 206, 229, 1)"></rect><circle r="16.435" cx="233.665" cy="1757.225" filter="url(#SvgjsFilter1009)" fill="rgba(40, 120, 205, 0.58)"></circle><circle r="17.02" cx="223.82000000000002" cy="1308.49" filter="url(#SvgjsFilter1009)" fill="rgba(40, 120, 205, 0.58)"></circle><circle r="19.36" cx="1436.35" cy="912.41" filter="url(#SvgjsFilter1009)" fill="rgba(40, 120, 205, 0.58)"></circle><circle r="20.71" cx="265.21999999999997" cy="1491.3" filter="url(#SvgjsFilter1009)" fill="rgba(40, 120, 205, 0.58)"></circle><circle r="23.915" cx="197.625" cy="2277.105" filter="url(#SvgjsFilter1009)" fill="rgba(40, 120, 205, 0.58)"></circle><circle r="18.735" cx="1196.375" cy="1503.625" filter="url(#SvgjsFilter1009)" fill="rgba(40, 120, 205, 0.58)"></circle><circle r="22.565" cx="833.245" cy="191.595" filter="url(#SvgjsFilter1009)" fill="rgba(40, 120, 205, 0.58)"></circle><circle r="22.21" cx="1402.66" cy="1400.71" filter="url(#SvgjsFilter1009)" fill="rgba(40, 120, 205, 0.58)"></circle><circle r="20.495" cx="1409.7849999999999" cy="42.205" filter="url(#SvgjsFilter1009)" fill="rgba(40, 120, 205, 0.58)"></circle><circle r="14.995" cx="78.065" cy="2405.4049999999997" filter="url(#SvgjsFilter1009)" fill="rgba(40, 120, 205, 0.58)"></circle><circle r="21.835" cx="249.60500000000002" cy="214.175" filter="url(#SvgjsFilter1009)" fill="rgba(40, 120, 205, 0.58)"></circle><circle r="13.7" cx="383.34" cy="906.9200000000001" filter="url(#SvgjsFilter1009)" fill="rgba(40, 120, 205, 0.58)"></circle><circle r="21.16" cx="1289.03" cy="1666.53" filter="url(#SvgjsFilter1009)" fill="rgba(40, 120, 205, 0.58)"></circle><circle r="14.365" cx="656.515" cy="2551.645" filter="url(#SvgjsFilter1009)" fill="rgba(40, 120, 205, 0.58)"></circle><circle r="18.235" cx="396.14500000000004" cy="2030.8349999999998" filter="url(#SvgjsFilter1009)" fill="rgba(40, 120, 205, 0.58)"></circle><circle r="22.535" cx="538.5949999999999" cy="1552.265" filter="url(#SvgjsFilter1009)" fill="rgba(40, 120, 205, 0.58)"></circle><circle r="20.27" cx="223.70000000000002" cy="2035.19" filter="url(#SvgjsFilter1009)" fill="rgba(40, 120, 205, 0.58)"></circle><circle r="18.92" cx="71.31" cy="2350.39" filter="url(#SvgjsFilter1009)" fill="rgba(40, 120, 205, 0.58)"></circle><circle r="14.175" cx="157.335" cy="2489.8450000000003" filter="url(#SvgjsFilter1009)" fill="rgba(40, 120, 205, 0.58)"></circle><circle r="15.01" cx="1339.66" cy="2385.4900000000002" filter="url(#SvgjsFilter1009)" fill="rgba(40, 120, 205, 0.58)"></circle><path d="M372.3 921.5L375.3 961.2 353.3 951.7C351.1 950.5 347.6 951.5 345.5 954.4 344.9 957.6 346 961.1 349.2 961.6L376.4 974.4 380.1 1005.2 323.4 978.4C320.3 977.9 316.8 978.9 315.6 981.2 314.2 985 315.2 988.4 318.4 989L381.1 1018.5 385.3 1065.7 338.7 1037.3 350 1090.7 306.8 1071.1 299.8 1002.1C300.7 1001.5 300.1 1000.6 299.4 999.6 298.1 997.8 295.9 996.6 293.3 997 290.8 997.3 288.7 1000.2 288.2 1003.4L294.7 1065.7 266.8 1052 263.7 1022.1C264 1020.5 263.4 1019.6 262.7 1018.7 262 1017.7 259.8 1016.5 257.3 1016.9 254.8 1017.3 252.6 1020.2 253 1022.7L254.7 1046.7 218.2 1030.7C215.3 1028.5 212.5 1030.5 210.4 1033.4 209.2 1035.7 210.2 1039.1 214.1 1040.6L249.6 1057.2 230.1 1071.1C227.3 1073 227.4 1077.1 228.7 1079 230.7 1081.8 233.9 1082.3 236.7 1080.3L261.7 1062.6 289.6 1076.3 239.5 1111.8C236.7 1113.8 236.1 1117 238.1 1119.8 239.4 1121.6 243.3 1123.1 246 1121.1L301.7 1081.6 344.9 1101.2 298 1127.5 349 1144.4 310 1172 247.9 1143.5C244.1 1142 241.3 1144 240.1 1146.2 238.9 1148.5 240 1151.9 242.9 1154L299.8 1179.2 274.7 1197 246.6 1184.9C243.7 1182.7 240.3 1183.8 238.8 1187.6 237.6 1189.9 238.6 1193.3 242.5 1194.8L263.6 1204.9 231.1 1227.9C228.3 1229.9 227.8 1233.1 229.7 1235.9S234.9 1239.2 237.7 1237.2L270.2 1214.2 272.7 1237.5C272.8 1241.6 275.7 1243.7 278.3 1243.3 282.4 1243.2 284.5 1240.3 283.4 1236.8L281.3 1206.3 306.4 1188.5 311.3 1250.6C312.3 1254 315.2 1256.1 317.8 1255.8 321.9 1255.6 324 1252.7 322.9 1249.3L316.6 1181.3 355.6 1153.7 354.6 1207.4 394.9 1171.8 399.1 1219 343.4 1258.5C340.6 1260.5 340.7 1264.6 342 1266.4 344 1269.2 347.2 1269.8 350 1267.8L401 1231.6 403.8 1263.1 378.8 1280.9C376 1282.8 375.4 1286 377.4 1288.8 378.7 1290.6 382.6 1292.1 385.3 1290.1L404.8 1276.3 408.8 1315.4C408.9 1319.5 411.8 1321.6 415.2 1320.5 417.8 1320.2 420.5 1318.2 419.5 1314.7L416.5 1275.1 438.5 1284.5C440.8 1285.7 444.2 1284.7 445.4 1282.4 446.6 1280.2 446.2 1277.7 445.6 1276.7 444.9 1275.8 444.3 1274.9 442.7 1274.6L415.5 1261.8 411.8 1231 468.4 1257.8C471.6 1258.3 475 1257.3 476.2 1255 477.4 1252.8 477 1250.3 475.7 1248.4 475 1247.5 475 1247.5 473.5 1247.2L410.7 1217.8 406.6 1170.5 453.1 1198.9 441.8 1145.5 485 1165.1 492 1234.1C492.4 1236.6 494.4 1239.4 498.5 1239.3 501 1238.9 503.1 1236 503.7 1232.8L497.2 1170.5 525 1184.2 528.1 1214.1C527.5 1217.3 530.4 1219.4 534.5 1219.3 537.1 1218.9 539.2 1216 539.7 1212.8L537.2 1189.5 573.6 1205.5C576.5 1207.7 579.3 1205.7 581.4 1202.8 581.7 1201.2 581.3 1198.7 580.7 1197.8 580 1196.8 579.3 1195.9 577.7 1195.6L542.2 1179 561.7 1165.2C564.5 1163.2 564.4 1159.1 563.1 1157.2L563.1 1157.2C561.1 1154.4 557.9 1153.9 555.1 1155.9L530.1 1173.6 502.2 1159.9 552.4 1124.4C555.1 1122.4 555.7 1119.2 553.7 1116.5S548.6 1113.1 545.8 1115.1L490.1 1154.6 446.9 1135 493.8 1108.7 442.8 1091.8 481.8 1064.2 543.9 1092.7C547.7 1094.2 550.5 1092.2 551.7 1090 552.9 1087.8 551.9 1084.3 548.9 1082.2L493 1056.3 517.1 1039.2 545.2 1051.4C548.1 1053.5 551.6 1052.4 553 1048.6 554.2 1046.4 553.2 1042.9 550.3 1040.8L528.2 1031.3 560.7 1008.3C563.5 1006.3 564.1 1003.1 562.1 1000.4S556.9 997 554.2 999L521.7 1022 519.1 998.7C519.4 997.2 518.7 996.2 518.1 995.3 516.7 993.4 515.2 993.2 513.6 992.9 509.5 993 507.3 995.9 508.4 999.4L510.5 1029.9 485.5 1047.7 480.5 985.6C479.9 984.7 479.2 983.8 478.6 982.8 477.2 981 475.7 980.7 474.1 980.5 470 980.6 467.8 983.5 468.9 986.9L475.2 1054.9 436.3 1082.5 437.3 1028.9 396.9 1064.4 392.7 1017.2 448.4 977.7C451.2 975.7 451.1 971.6 449.8 969.8 447.8 967 444.6 966.5 441.8 968.4L391.7 1003.9 388 973.1 413.1 955.4C415.9 953.4 416.4 950.2 414.4 947.4S409.3 944.1 406.5 946.1L387 959.9 383 920.9C383.3 919.3 382.7 918.3 382 917.4 381.3 916.5 379.1 915.3 376.6 915.7 374.1 916.1 371.3 918 372.3 921.5ZM425.7 1053.8L424.7 1097.7 466.4 1111.4 427.6 1133.3 436.7 1175.7 398.8 1153.7 366.2 1182.4 367.1 1138.5 325.4 1124.8 363.3 1103.6 355.1 1060.5 392.1 1083.2 425.7 1053.8Z" fill="rgba(40, 120, 205, 0.58)"></path><path d="M859.6 1896.1L863 1802 881.6 1783.9 937.1 1800.7 943.6 1826.4 893.3 1906.3C893 1907.4 893 1907.4 892.7 1908.5 892 1910.6 892.5 1913.1 895.4 1915.2 898.7 1916.2 901.2 1915.8 903.2 1912.8L947 1842.9 956.4 1882.5 937.5 1913.7C937.5 1913.7 937.1 1914.8 937.1 1914.8 936.5 1916.9 936.9 1919.4 939.8 1921.5 941.7 1923.3 945.6 1922.1 947.7 1919.1L960.8 1899.3 967.4 1928.7C967.8 1931.2 970.8 1933.2 974.4 1933.1S979.3 1928.7 979.2 1925.1L972.3 1896.8 992.4 1908.9C995.3 1910.9 999.3 1909.8 1001.3 1906.8 1002 1904.6 1001.9 1901 999 1899L967.8 1880.1 958.7 1839.3 1028.7 1883C1031.7 1885.1 1035.6 1883.9 1037.3 1882 1038.3 1878.8 1038.2 1875.2 1035.3 1873.1L955.1 1823.9 948.9 1797.1 990.3 1758.5 1016.4 1766.4 1061.6 1849C1063.1 1851.8 1066.4 1852.8 1069.2 1851.3S1073.1 1846.5 1071.5 1843.6L1031.7 1771 1072 1783.2 1088.7 1814.4C1090.2 1817.2 1093.5 1818.2 1097.4 1817S1101.2 1812.2 1099.7 1809.4L1087.2 1787.8 1116.6 1796.6C1119.9 1797.6 1123.1 1795 1124.1 1791.8 1125 1788.5 1123.5 1785.7 1120.3 1784.7L1090.8 1775.8 1112.1 1764.4C1116 1763.2 1117 1759.9 1114.4 1756.8 1112.9 1753.9 1109.6 1752.9 1106.8 1754.5L1075.6 1771.2 1035.3 1759 1108.7 1720.6C1111.6 1719 1112.9 1714.7 1111.3 1711.9S1106.6 1708 1103.7 1709.5L1020.1 1754.4 993.9 1746.5 981.2 1690.3 1000.8 1672.5 1094.9 1676C1098.5 1675.9 1100.5 1672.9 1101.5 1669.7 1101.4 1666.1 1098.5 1664 1095.2 1663L1012.7 1660.7 1042.5 1632.8 1078.9 1634.3C1082.5 1634.2 1084.6 1631.3 1085.6 1628 1085.1 1625.5 1082.5 1622.3 1078.9 1622.4L1055.5 1621.3 1077.2 1600.5C1079 1598.7 1078.9 1595.1 1077.4 1592.2 1074.4 1590.2 1070.8 1590.3 1069.1 1592.1L1047.4 1612.9 1047.7 1588C1047.3 1585.5 1044.7 1582.4 1042.2 1582.8 1038.9 1581.8 1037.2 1583.7 1036.2 1586.9 1036.2 1586.9 1035.8 1588 1035.8 1588L1034.4 1624.4 1004.6 1652.2 1006.9 1569.8C1006.8 1566.2 1005.3 1563.3 1001.7 1563.4 998.1 1563.5 996.3 1565.4 995.7 1567.6 995.3 1568.6 995.3 1568.6 995.3 1568.6L992.7 1664.1 973 1681.9 917.5 1665.2 912.1 1639.8 961.6 1558.4C963.3 1556.6 962.1 1552.7 960.3 1550.9 957.3 1548.8 953.4 1550 951.3 1553L907.6 1623 898.2 1583.3 917.1 1552.1C919.2 1549.2 919.1 1545.6 915.8 1544.6 912.9 1542.5 909 1543.7 907.2 1545.6L894.9 1566.8 888.3 1537.5C886.8 1534.7 883.8 1532.6 880.2 1532.7 878.8 1533.4 877.1 1535.3 876.4 1537.5 876.1 1538.6 876.1 1538.6 876.8 1540L883.4 1569.3 862.2 1556.9C859.3 1554.9 856.4 1556.4 854.7 1558.2 854.3 1559.3 854.3 1559.3 854 1560.4 853.4 1562.6 853.8 1565.1 855.6 1566.8L886.8 1585.8 896.2 1625.4 826.2 1581.7C822.9 1580.7 819.3 1580.8 818.3 1584.1 816.9 1584.9 816.9 1584.9 816.6 1586 815.9 1588.1 817.4 1591 819.3 1592.7L900.6 1642.2 906 1667.6 864.3 1707.3 839.3 1699.8 794.4 1616.1C792.9 1613.3 788.5 1611.9 785.7 1613.5S781.5 1619.3 783.1 1622.2L822.9 1694.8 783.7 1683 765.9 1651.5C764.4 1648.6 761.1 1647.6 758.3 1649.2 755.4 1650.7 754.4 1653.9 756 1656.8L767.4 1678.1 738 1669.2C735.8 1668.5 731.9 1669.7 730.9 1673 729.9 1676.2 732.2 1680.5 734.3 1681.2L763.7 1690 742.5 1701.4C741.1 1702.2 739.6 1703 739.3 1704 738.6 1706.2 739.4 1707.6 740.2 1709.1 741.7 1711.9 745 1712.9 747.8 1711.4L780.1 1695 819.3 1706.8 745.9 1745.3C744.5 1746 744.1 1747.1 743.5 1749.3 743.1 1750.4 742.8 1751.5 743.6 1752.9 745.1 1755.7 749.4 1757 752.3 1755.5L835.6 1711.8 860.7 1719.3 873.8 1774.4 854.9 1793.6 759.7 1789.9C757.2 1790.3 754.4 1791.8 753.7 1794 753.4 1795.1 753.4 1795.1 754.5 1795.4 753.5 1798.7 756.1 1801.8 759.7 1801.7L842.2 1804.1 812.1 1833 775.7 1831.5C773.2 1831.9 771.4 1833.8 770.8 1836 770.8 1836 770.4 1837.1 770.4 1837.1 769.4 1840.3 772.1 1843.5 775.7 1843.4L800.5 1843.8 778.8 1864.5C777.4 1865.3 777 1866.4 776.7 1867.5 776 1869.7 776.5 1872.2 777.6 1872.5 780.2 1875.7 783.8 1875.6 786.6 1874L808.3 1853.3 807.2 1876.7C807.3 1880.3 809.9 1883.5 813.5 1883.4 816 1882.9 819.2 1880.3 818.7 1877.8L820.2 1841.4 850 1813.6 847.7 1896.1C847.8 1899.7 850.7 1901.7 854 1902.7 856.5 1902.3 859.7 1899.7 859.6 1896.1ZM934.2 1786.7L891.7 1773.9 885.2 1771.9 883.6 1765.5 873.8 1723.3 872.5 1715.7 877.4 1711.3 908.9 1681.6 913.8 1677.1 920.4 1679.1 962.8 1691.9 969.4 1693.9 971 1700.4 980.8 1742.5 982.5 1749 977.2 1754.5 945.7 1784.2 940.8 1788.7 934.2 1786.7Z" fill="rgba(40, 120, 205, 0.58)"></path><path d="M945.7 799L878.6 732.5 878.9 648.4 951.6 690.6 975.3 782C975.3 782 975.8 783 975.8 783 977 784.9 980.1 785.8 982.6 785.6 986.1 784.9 988 781.2 986.3 778.3L965.3 698.4 1000.7 718.8 1010.3 753.9C1010.3 753.9 1010.9 754.9 1010.9 754.9 1012 756.9 1015.2 757.7 1017.7 757.6 1021.2 756.9 1023 753.2 1021.3 750.3L1015.4 726.1 1041.2 741.5C1043.3 742.9 1047.9 741.6 1049.3 739.5 1051.7 736.8 1049.4 732.8 1047.3 731.4L1021.4 716.1 1045.5 710.1C1049.1 709.4 1050.9 705.7 1049.2 702.8 1048.5 699.2 1044.8 697.4 1041.8 699.1L1006.7 708.8 972.4 687.8 1052.2 666.9C1055.7 666.2 1057.6 662.5 1055.9 659.6 1055.1 656 1051.5 654.2 1048.5 655.9L957.1 679.5 884.3 637.4 958.3 594.9 1050 619.6C1053.1 620.5 1056.1 618.8 1056.9 615.7 1057.7 612.6 1056 609.6 1052.9 608.8L972.2 586.9 1007.7 566.5 1041.8 575.8C1045 576.6 1047.9 574.9 1048.8 571.8 1049.6 568.7 1047.9 565.7 1044.8 564.9L1021.5 558.6 1049.1 542.7C1052.6 542 1052.9 537.9 1051.2 535 1049.5 532 1046.4 531.2 1043.4 532.9L1017.8 547.6 1024.1 524.3C1024.9 521.2 1023.2 518.2 1020.1 517.4S1014.1 518.3 1013.2 521.4L1004 555.5 968.5 575.9 990.3 495.2C991.1 492.1 989.4 489.1 986.3 488.3 983.2 487.4 980.3 489.1 979.4 492.2L954.7 583.9 881.6 625.8 881.9 541.7 946.9 476.8C949.3 474.1 948.6 470.6 946.9 467.6 944.2 465.2 940.7 465.9 937.7 467.6L879.4 526 879.6 485.2 905.7 459.8C908.1 457.1 907.4 453.6 905.7 450.6 903 448.2 899.5 448.9 897.5 450.1L880.2 467.9 880 437.8C879.8 435.3 877.5 431.3 874 432.1 870.5 432.8 867.5 434.5 868.2 438L868.5 468.1 850.6 450.7C847.9 448.3 844.4 449.1 842.4 450.2 841 452.3 840.2 455.4 841.3 457.4 841.3 457.4 841.9 458.4 841.9 458.4L867.4 484.4 867.2 525.2 808.8 466.9C806.1 464.5 802.5 465.2 800.6 466.4 799.2 468.5 798.3 471.6 799.5 473.6 799.5 473.6 800 474.6 800 474.6L867.1 541 866.8 625.1 794.1 583 770.4 491.6C769.7 488 766 486.2 763.1 487.9 759.6 488.6 757.7 492.3 759.4 495.2L780.3 575.1 745 554.7 735.3 519.6C734.6 516 731 514.2 728 515.9 724.5 516.6 722.6 520.3 724.3 523.3L730.3 547.4 704.5 532.1C702.3 530.7 697.8 531.9 696.4 534.1 695 536.2 695.2 538.7 696.3 540.7 696.9 541.7 697.4 542.7 699 543.1L724.8 558.4 700.7 564.4C697.2 565.1 695.4 568.8 697.1 571.7 697.1 571.7 697.6 572.7 697.6 572.7 698.8 574.7 701.9 575.5 704.4 575.4L739.5 565.7 774.9 586.1 695 607C691.5 607.7 689.7 611.4 691.4 614.4 691.4 614.4 691.9 615.4 691.9 615.4 693.1 617.3 696.2 618.2 698.7 618L790.1 594.4 862.9 636.6 789.9 678.5 698.2 653.7C695.1 652.9 692.2 654.6 691.3 657.7 690.5 660.8 692.2 663.8 695.3 664.6L775.1 687 739.6 707.4 705.4 698.2C702.3 697.3 699.3 699 698.5 702.1S699.3 708.2 702.5 709L725.8 715.3 700.1 730.1C697.1 731.8 696.3 734.9 698 737.8 699.7 740.8 702.8 741.6 705.8 739.9L731.4 725.2 725.1 748.5C724.7 750.1 724.3 751.6 725.4 753.6S728.1 756 729.7 756.4C732.8 757.2 735.7 755.5 736.6 752.4L745.8 718.3 781.3 697.9 759.5 778.6C759.1 780.2 758.6 781.7 759.8 783.7 760.3 784.7 762.5 786.1 764 786.5 767.1 787.4 770.1 785.7 770.9 782.6L795.7 690.9 868.7 649 868.5 733.1 802 800.1C800.6 802.2 799.8 805.4 800.9 807.3 800.9 807.3 801.5 808.3 801.5 808.3 804.1 810.7 807.7 810 809.6 808.9L867.9 750.4 867.7 791.2 841.7 816.7C840.3 818.8 839.5 821.9 840.6 823.9 840.6 823.9 841.2 824.9 841.2 824.9 843.8 827.3 847.4 826.6 849.3 825.4L866.7 807.6 866.9 837.7C867.4 838.7 867 840.2 867.6 841.2 868.7 843.2 870.8 844.6 873.4 844.4 876.9 843.7 879.9 842 879.1 838.5L878.9 808.4 896.8 825.7C899.4 828.1 903 827.4 904.9 826.3 907.3 823.6 906.6 820.1 905.5 818.1L880 792.1 880.2 751.3 938.6 809.6C941.3 812 944.8 811.2 946.8 810.1 948.1 805.5 948.4 801.4 945.7 799Z" fill="rgba(40, 120, 205, 0.58)"></path><path d="M997 1333.8L1012.6 1265 1028.8 1254.2 1067.4 1274.3 1068.6 1294.1 1020.5 1346C1020.1 1346.8 1020.1 1346.8 1019.7 1347.6 1018.9 1349.1 1018.9 1351 1020.7 1352.9 1023 1354.1 1024.9 1354.1 1026.9 1352.2L1068.8 1306.7 1070.2 1337.3 1052 1357.6C1052 1357.6 1051.6 1358.4 1051.6 1358.4 1050.8 1359.9 1050.8 1361.8 1052.6 1363.7 1053.8 1365.3 1056.8 1364.9 1058.8 1363.1L1071.2 1350.3 1072 1372.8C1071.9 1374.7 1073.8 1376.7 1076.5 1377.1S1080.7 1374.5 1081.1 1371.8L1080 1350.1 1093.1 1361.7C1095 1363.7 1098.1 1363.3 1100 1361.4 1100.8 1359.9 1101.2 1357.3 1099.3 1355.3L1079 1337.1 1078 1305.7 1123.5 1347.7C1125.4 1349.6 1128.4 1349.3 1130 1348.2 1131.2 1345.9 1131.6 1343.3 1129.7 1341.3L1077.4 1293.9 1076.6 1273.3 1112.5 1250.6 1130.6 1260 1152.5 1327.2C1153.2 1329.5 1155.5 1330.7 1157.8 1329.9S1161.2 1326.9 1160.5 1324.6L1141.2 1265.5 1169.3 1280.1 1177.2 1305.4C1178 1307.7 1180.2 1308.9 1183.3 1308.6S1186.8 1305.6 1186.1 1303.3L1179.8 1285.6 1200.3 1296.3C1202.6 1297.5 1205.3 1296 1206.4 1293.7 1207.6 1291.4 1206.9 1289.1 1204.6 1287.9L1184.2 1277.3 1201.4 1271.9C1204.5 1271.5 1205.7 1269.3 1204.2 1266.6 1203.5 1264.3 1201.2 1263.1 1198.9 1263.8L1173.6 1271.8 1145.6 1257.2 1205 1239.1C1207.3 1238.4 1208.9 1235.3 1208.2 1233S1205.2 1229.6 1202.9 1230.3L1135 1251.7 1116.8 1242.3 1115.2 1199.1 1132.2 1188.7 1201 1204.3C1203.7 1204.7 1205.6 1202.8 1206.8 1200.6 1207.2 1197.9 1205.3 1196 1203.1 1194.8L1142.6 1181.6 1168.4 1165.2 1195.1 1171.4C1197.7 1171.8 1199.7 1169.9 1200.8 1167.7 1200.9 1165.7 1199.4 1163.1 1196.7 1162.6L1179.6 1158.5 1198.5 1146.2C1200.1 1145.1 1200.5 1142.5 1199.8 1140.2 1197.9 1138.2 1195.2 1137.8 1193.7 1138.9L1174.8 1151.2 1178.5 1132.9C1178.5 1131 1177 1128.3 1175.1 1128.3 1172.9 1127.1 1171.3 1128.2 1170.1 1130.5 1170.1 1130.5 1169.7 1131.3 1169.7 1131.3L1163.6 1157.9 1137.8 1174.3 1150.9 1113.8C1151.4 1111.1 1150.6 1108.8 1148 1108.4 1145.3 1108 1143.8 1109.1 1143 1110.6 1142.6 1111.4 1142.6 1111.4 1142.6 1111.4L1127.3 1181.4 1110.4 1191.8 1071.8 1171.7 1071.3 1152.2 1119.1 1099.2C1120.7 1098 1120.3 1095 1119.2 1093.4 1117.3 1091.5 1114.3 1091.8 1112.3 1093.7L1070.4 1139.2 1069 1108.7 1087.2 1088.3C1089.2 1086.5 1089.6 1083.8 1087.3 1082.6 1085.4 1080.7 1082.4 1081 1080.8 1082.1L1068.8 1096.1 1068 1073.5C1067.3 1071.2 1065.4 1069.3 1062.7 1068.9 1061.6 1069.2 1060 1070.3 1059.3 1071.9 1058.9 1072.6 1058.9 1072.6 1059.2 1073.8L1060 1096.3 1046.1 1084.2C1044.2 1082.3 1041.9 1083 1040.4 1084.2 1040 1084.9 1040 1084.9 1039.6 1085.7 1038.8 1087.2 1038.7 1089.1 1039.9 1090.6L1060.2 1108.9 1061.6 1139.5 1016.1 1097.5C1013.8 1096.3 1011.2 1095.9 1010 1098.2 1008.8 1098.5 1008.8 1098.5 1008.4 1099.3 1007.6 1100.8 1008.4 1103.1 1009.5 1104.6L1062.5 1152.4 1063 1171.9 1026.7 1195.4 1009.3 1186.3 987.9 1118.4C987.2 1116.1 984.1 1114.5 981.8 1115.3S978 1119 978.7 1121.3L998 1180.4 970.7 1166.2 962 1140.5C961.2 1138.2 959 1137 956.7 1137.8 954.4 1138.5 953.2 1140.8 953.9 1143.1L959.4 1160.3 938.9 1149.7C937.4 1148.9 934.3 1149.2 933.2 1151.5 932 1153.8 933.1 1157.2 934.6 1158L955 1168.6 937.8 1174.1C936.6 1174.5 935.5 1174.8 935.1 1175.6 934.3 1177.1 934.6 1178.2 935 1179.4 935.7 1181.7 938 1182.9 940.3 1182.2L966.4 1174.6 993.6 1188.7 934.2 1206.9C933 1207.2 932.6 1208 931.8 1209.5 931.5 1210.3 931.1 1211 931.4 1212.2 932.1 1214.5 935.2 1216 937.5 1215.3L1005 1194.6 1022.4 1203.7 1024.4 1246.1 1007.8 1257.7 938.2 1241.7C936.3 1241.6 934 1242.4 933.2 1243.9 932.8 1244.6 932.8 1244.6 933.6 1245 932.4 1247.3 933.9 1250 936.5 1250.4L997 1263.6 970.8 1280.7 944.2 1274.6C942.2 1274.5 940.7 1275.7 939.9 1277.2 939.9 1277.2 939.5 1277.9 939.5 1277.9 938.3 1280.2 939.8 1282.9 942.5 1283.3L960.7 1287.1 941.8 1299.4C940.7 1299.7 940.3 1300.5 939.9 1301.2 939.1 1302.7 939.1 1304.6 939.8 1305 941.3 1307.7 944 1308.2 946.3 1307.4L965.2 1295.1 961.1 1312.3C960.7 1314.9 962.2 1317.6 964.8 1318 966.7 1318.1 969.4 1316.6 969.5 1314.7L975.6 1288.1 1001.5 1271.7 988.3 1332.2C987.8 1334.8 989.7 1336.8 992 1337.9 993.9 1338 996.6 1336.5 997 1333.8ZM1067.2 1263.6L1037.7 1248.2 1033.2 1245.9 1032.9 1240.9 1031.5 1208.4 1031.6 1202.7 1035.8 1200.1 1063.2 1182.6 1067.4 1180 1072 1182.4 1101.5 1197.7 1106 1200.1 1106.3 1205.1 1107.7 1237.5 1108 1242.5 1103.4 1245.9 1076 1263.3 1071.8 1266 1067.2 1263.6Z" fill="rgba(40, 120, 205, 0.58)"></path><path d="M250.6 266.2L272.8 264.6 266.8 278.3C266 279.7 266.6 281.9 268.4 283.2 270.4 283.6 272.6 283 273.3 281.6L281.7 263.7 302.4 262.3 285.1 298.5C284.2 300.9 284.8 303.1 286.8 303.4 288.6 304.8 290.7 304.1 291.7 301.7L310.6 261.7 329.4 260 354.1 295.6 347.3 310.7 300.2 314C299.6 314.4 299 314.8 298.4 315.2 297.9 315.6 297.1 317 296.9 318 297 320.6 298.8 321.9 300.9 321.3L343.9 318.3 335 336.6 313.1 338.8C312.7 338.2 312.1 338.6 311.5 339 310.4 339.9 309.6 341.3 309.8 342.8 310 344.4 311.8 345.7 313.8 346.1L331.5 344.2 320.7 367.3C320 368.7 320.6 370.8 322.4 372.2 324.4 372.5 326.5 371.9 327.3 370.5L337.4 348.8 345.9 361.1C347.1 362.8 349.7 362.8 350.8 362 352.6 360.8 353.5 358.4 352.3 356.6L341.3 340.8 350.3 322.5 373 355.2C374.2 357 376.2 357.3 377.9 356.1 379.7 354.9 380 352.9 378.8 351.2L353.7 315 360.7 298.9 404.2 295.5 413.5 308.9 394.4 349.9C393 351.7 394.1 354.4 396.1 354.8 397.9 356.1 399.6 354.9 401 353.1L418.4 315.9 430.2 332.8 421.2 351.2C420.5 352.6 421.5 355.3 422.9 356.1S427 355.8 428.4 354L435 339.9 449.2 360.3C450.4 362 453 362 454.8 360.8 455.9 360 456.9 357.6 455.6 355.8L441.4 335.4 457.6 333.7C459.2 333.5 460.9 332.3 460.9 329.7 460.6 328.1 458.4 326.2 456.9 326.4L436.6 328.4 424.8 311.4 465.8 308.1C467.9 307.5 469.7 306.2 469.6 303.7 469.4 302.1 467.2 300.2 465.6 300.4L420 304.4 410.6 291 429 251.4 446.5 250.5 471.7 286.7C472.9 288.4 474.9 288.8 476.6 287.6 478.4 286.4 479.3 284 478.1 282.2L455.4 249.5 475.7 247.5 486.6 263.3C487.8 265.1 489.8 265.4 491.6 264.2 493.3 263 493.7 261 492.5 259.3L484 247 507.8 245.2C509.4 244.9 511.3 242.7 511.1 241.2 510.4 239 509.2 237.2 507.1 237.9L482.2 239.5 489.6 224C490 222 489.4 219.9 488 219.1 486.6 218.3 485 218.6 483.8 219.4 483.8 219.4 483.2 219.8 483.1 220.8L473.4 240.5 453.1 242.5 470.9 203.3C472.2 201.5 471.6 199.3 469.2 198.4 468.2 198.2 467.2 198 466.1 198.8 465.5 199.2 464.9 199.6 464.3 200L444.8 243 428.3 244.1 403.5 208.5 411.7 191.6 455.8 187.8C458.4 187.7 459.7 185.9 459.1 183.8 459.4 181.8 457.6 180.4 455.1 180.5L415.1 184 423.6 165.1 443.3 163.5C444.9 163.3 446.2 161.5 446.6 159.5 446 157.4 444.7 155.6 442.6 156.3L427.6 157.1 436.9 136.8C438.2 135 437 133.3 435.2 131.9 434.2 131.8 432.6 132 431.5 132.8 431.5 132.8 430.9 133.2 430.3 133.6L420.3 155.3 410.1 140.7C409.3 139.5 406.9 138.6 405.2 139.8 403.4 141 403.5 143.6 404.3 144.8L416.9 162.9 408.3 181.8 383.6 146.1C382.4 144.4 379.8 144.4 378.1 145.6S376 148.8 377.2 150.6L404.4 189.7 397 205.3 353.4 208.6 342.9 193.5 362.6 152.1C363 150.1 362.3 147.9 360.5 146.6 359.5 146.4 358 146.6 356.8 147.4 356.2 147.8 355.6 148.2 355.5 149.2L338 186.5 326.2 169.5 334.8 150.6C335.5 149.2 334.9 147.1 333.1 145.7 331.1 145.4 329 146 328.2 147.4L321.4 162.5 308.4 143.8C307.6 142.6 304.6 142.1 303.5 142.9 301.7 144.1 301.2 147.1 302 148.3L315 167 299 167.7C298.4 168.1 297.8 168.5 297.2 168.9 296.1 169.7 295.3 171.1 295.1 172.1 295.8 174.2 297.6 175.6 299.5 175.9L319.8 174 331.6 190.9 290.6 194.3C288.1 194.3 286.7 196.1 286.9 197.7 287 200.2 288.8 201.6 290.8 201.9L336.5 197.9 347 213.1 328.6 252.7 311.5 254.2 284.3 215.1C283.1 213.3 281.1 213 279.4 214.2 277.6 215.4 277.3 217.4 278.5 219.1L303.2 254.8 282.5 256.2 270 238C269.1 236.9 266.2 236.3 264.4 237.6 262.7 238.8 262.7 241.3 263.5 242.5L273.7 257.1 249.8 258.9C249.2 259.4 249.2 259.4 248.7 259.8 247.5 260.6 246.7 262 246.6 263 247.2 265.1 249 266.5 250.6 266.2ZM351.9 220.1L354.2 215.9 358.3 215.7 393.5 212.8 397.7 212.5 400.1 216 420 244.7 422.4 248.2 420.7 251.9 405.8 284 404 287.8 399.3 288.5 364.7 290.9 359.9 291.6 357.5 288.1 337.6 259.4 335.2 255.9 337.5 251.8 351.9 220.1Z" fill="rgba(40, 120, 205, 0.58)"></path><path d="M1343.7 2329L1354.8 2422.4 1339.2 2443.2 1281.8 2435.2 1271.4 2410.7 1308.8 2324.1C1309 2322.9 1309 2322.9 1309.1 2321.8 1309.4 2319.6 1308.6 2317.2 1305.4 2315.6 1302 2315.1 1299.6 2315.9 1298 2319.1L1265.6 2395 1250.2 2357.2 1264.1 2323.6C1264.1 2323.6 1264.2 2322.4 1264.2 2322.4 1264.5 2320.2 1263.7 2317.8 1260.5 2316.2 1258.4 2314.7 1254.7 2316.5 1253.1 2319.7L1243.2 2341.3 1232.2 2313.3C1231.4 2310.9 1228.1 2309.3 1224.6 2310S1220.4 2315.1 1221.1 2318.7L1232.3 2345.5 1210.5 2336.7C1207.3 2335.1 1203.6 2336.9 1202 2340.1 1201.7 2342.4 1202.3 2345.9 1205.6 2347.5L1239.2 2361.4 1254.5 2400.3 1178.6 2367.9C1175.4 2366.3 1171.7 2368.1 1170.2 2370.2 1169.8 2373.5 1170.4 2377.1 1173.6 2378.7L1260.5 2415 1270.7 2440.5 1235.7 2485 1208.7 2481.2 1151.3 2406.6C1149.4 2404 1146 2403.5 1143.5 2405.5S1140.4 2410.8 1142.4 2413.4L1192.9 2479 1151.2 2473.2 1129.9 2444.9C1128 2442.4 1124.6 2441.9 1120.9 2443.7S1117.8 2449 1119.8 2451.6L1135.4 2471 1105 2466.7C1101.6 2466.2 1098.9 2469.3 1098.4 2472.7 1098 2476.1 1099.9 2478.6 1103.3 2479.1L1133.7 2483.4 1114.4 2497.9C1110.7 2499.7 1110.3 2503.1 1113.3 2505.8 1115.3 2508.4 1118.6 2508.8 1121.2 2506.9L1149.5 2485.6 1191.2 2491.4 1124.5 2540.7C1122 2542.6 1121.3 2547.1 1123.3 2549.7S1128.6 2552.7 1131.2 2550.8L1206.9 2493.6 1234 2497.4 1255.2 2550.9 1238.5 2571.6 1145.1 2582.6C1141.5 2583.3 1139.9 2586.5 1139.5 2589.9 1140.1 2593.4 1143.3 2595 1146.7 2595.5L1228.6 2585.1 1203.4 2617.2 1167.2 2621.3C1163.7 2622 1162.1 2625.2 1161.6 2628.6 1162.4 2631 1165.5 2633.7 1169 2633.1L1192.4 2630.6 1174.1 2654.5C1172.6 2656.6 1173.3 2660.1 1175.2 2662.7 1178.5 2664.3 1182 2663.6 1183.4 2661.5L1201.7 2637.7 1205.2 2662.3C1206 2664.7 1209 2667.4 1211.4 2666.6 1214.8 2667.1 1216.3 2665 1216.7 2661.6 1216.7 2661.6 1216.9 2660.5 1216.9 2660.5L1212.8 2624.3 1238 2592.2 1248.3 2674.1C1249 2677.6 1250.9 2680.2 1254.4 2679.5 1258 2678.9 1259.4 2676.8 1259.7 2674.5 1259.9 2673.4 1259.9 2673.4 1259.9 2673.4L1247.9 2578.6 1264.6 2558 1322 2566 1331.3 2590.3 1294.8 2678.3C1293.4 2680.4 1295.2 2684.1 1297.3 2685.5 1300.5 2687.1 1304.2 2685.3 1305.8 2682.1L1338.2 2606.2 1353.6 2644 1339.7 2677.7C1338.1 2680.9 1338.8 2684.4 1342.2 2684.9 1345.4 2686.5 1349.1 2684.7 1350.5 2682.6L1359.5 2659.7 1370.5 2687.7C1372.4 2690.3 1375.6 2691.9 1379.2 2691.2 1380.5 2690.3 1381.9 2688.2 1382.2 2685.9 1382.4 2684.8 1382.4 2684.8 1381.4 2683.5L1370.4 2655.5 1393.3 2664.5C1396.5 2666.1 1399.1 2664.1 1400.5 2662 1400.7 2660.9 1400.7 2660.9 1400.8 2659.8 1401.1 2657.5 1400.3 2655.1 1398.2 2653.7L1364.6 2639.8 1349.2 2602 1425 2634.5C1428.4 2634.9 1432 2634.3 1432.4 2630.9 1433.7 2629.9 1433.7 2629.9 1433.9 2628.8 1434.2 2626.5 1432.3 2624 1430.2 2622.5L1342.2 2586.1 1333 2561.8 1368.1 2516.2 1394 2519.8 1451.2 2595.6C1453.1 2598.2 1457.6 2598.8 1460.2 2596.9S1463.4 2590.4 1461.4 2587.9L1410.9 2522.2 1451.5 2527.9 1473.9 2556.3C1475.8 2558.9 1479.2 2559.3 1481.8 2557.4 1484.4 2555.4 1484.8 2552.1 1482.9 2549.5L1468.4 2530.2 1498.8 2534.5C1501 2534.8 1504.7 2533 1505.2 2529.6 1505.7 2526.3 1502.8 2522.4 1500.5 2522.1L1470.1 2517.8 1489.4 2503.3C1490.6 2502.3 1491.9 2501.4 1492.1 2500.2 1492.4 2498 1491.4 2496.7 1490.5 2495.4 1488.5 2492.8 1485.1 2492.4 1482.6 2494.3L1453.2 2515.5 1412.6 2509.8 1479.3 2460.5C1480.5 2459.6 1480.7 2458.4 1481 2456.2 1481.2 2455.1 1481.3 2453.9 1480.4 2452.6 1478.4 2450.1 1473.9 2449.4 1471.4 2451.4L1395.7 2507.4 1369.8 2503.8 1348.4 2451.4 1364.1 2429.5 1458.7 2418.6C1461.1 2417.8 1463.7 2415.8 1464 2413.6 1464.2 2412.5 1464.2 2412.5 1463 2412.3 1463.5 2408.9 1460.4 2406.2 1456.9 2406.8L1375 2417.2 1400.4 2384 1436.6 2379.9C1439 2379.1 1440.4 2377 1440.7 2374.7 1440.7 2374.7 1440.9 2373.6 1440.9 2373.6 1441.4 2370.2 1438.3 2367.5 1434.8 2368.1L1410.1 2371.6 1428.4 2347.7C1429.7 2346.7 1429.9 2345.6 1430 2344.5 1430.3 2342.2 1429.5 2339.8 1428.4 2339.7 1425.3 2336.9 1421.8 2337.6 1419.2 2339.5L1401 2363.4 1398.5 2340.1C1397.8 2336.5 1394.8 2333.8 1391.2 2334.5 1388.8 2335.3 1386.1 2338.3 1386.9 2340.7L1391 2376.9 1365.8 2409 1355.5 2327.2C1354.8 2323.6 1351.6 2322 1348.2 2321.5 1345.8 2322.4 1343.1 2325.4 1343.7 2329ZM1286.8 2448.5L1330.7 2454.7 1337.5 2455.6 1340.1 2461.7 1356.3 2501.9 1358.7 2509.1 1354.6 2514.3 1327.9 2548.5 1323.8 2553.6 1317 2552.7 1273.1 2546.5 1266.3 2545.6 1263.7 2539.5 1247.5 2499.3 1244.9 2493.2 1249.2 2486.9 1275.9 2452.7 1280 2447.6 1286.8 2448.5Z" fill="rgba(40, 120, 205, 0.58)"></path><path d="M1299 836L1318.3 840.9 1310.2 849.9C1309.3 850.7 1309.3 852.5 1310.3 854 1311.7 854.8 1313.5 854.8 1314.3 853.4L1324.7 842.6 1339.9 845.7 1318.1 868.3C1317.4 869.7 1317.3 871.5 1318.2 872.4 1319.8 873.7 1321.5 873.8 1322.3 872.4L1346.3 847.4 1369.4 853 1348.5 870.5 1375.5 873.7 1359.3 891 1325.6 883.3C1325.4 882.7 1324.9 882.9 1324.3 883 1323.2 883.4 1322.3 884.2 1322.1 885.5 1321.9 886.8 1322.9 888.2 1324.3 889L1354.9 895.9 1343.9 906.9 1329.3 903.5C1328.6 903.2 1328 903.3 1327.5 903.5 1326.9 903.6 1326 904.5 1325.8 905.8 1325.6 907 1326.6 908.5 1327.8 908.7L1339.4 911.8 1326 926.5C1324.6 927.5 1325 929.1 1326.1 930.6 1326.9 931.5 1328.7 931.6 1330.1 930L1343.6 915.9 1347.1 927.3C1347.5 928.9 1349.5 929.5 1350.6 929.2 1352.2 928.7 1353 927.3 1352.5 925.7L1348.1 911 1359.1 900 1367.9 929.4C1368.4 931 1369.8 931.8 1371.4 931.3 1372.5 931 1373.8 929.4 1373.3 927.8L1363.5 895.1 1379.7 877.8 1384.7 904.2 1400.8 882.7 1407.7 905.6 1384.2 930.5C1382.9 932 1383.4 933.7 1384.3 934.6 1385.1 935.5 1386.9 935.6 1388.4 934.5L1409.5 911.6 1413.9 926.3 1403.6 937.7C1402.1 938.7 1402.1 940.5 1403.7 941.9 1404.5 942.8 1406.3 942.8 1407.6 941.3L1415.8 932.9 1421.5 952C1422 953.6 1423.4 954.4 1425.1 953.9S1427.5 952 1427 950.3L1421.3 931.2 1432.7 933.8C1434.7 934.4 1436.1 933.3 1436.4 932.1 1437 930.1 1435.9 928.6 1434.1 928.6L1419.3 924.7 1414.9 910 1445.1 917.6C1446.9 917.6 1448.4 916.6 1448.6 915.4 1449.2 913.4 1448.1 911.9 1446.4 911.9L1413.1 904 1406.3 881.1 1431.5 890.2 1421.2 865.4 1444.2 870.9 1454 903.6C1454.5 905.3 1456.4 905.9 1457.5 905.6 1459.2 905.1 1459.9 903.7 1459.4 902L1450.5 872 1465.8 875.8 1470.2 890.5C1470.7 892.1 1472.1 892.9 1473.8 892.4 1474.9 892.1 1476.2 890.5 1475.7 888.8L1472.3 877.4 1491.4 881.8C1493.3 882.4 1494.8 881.3 1494.9 879.5 1495.1 878.3 1494.6 876.7 1492.8 876.6L1473.5 871.7 1481.5 862.7C1482.5 861.9 1482.5 860.1 1481.7 859.2 1480.8 858.2 1479.5 858 1479 858.2 1478.4 858.3 1477.9 858.5 1477.5 859.2L1467.1 870 1451.9 866.9 1473.7 844.3C1474.4 842.9 1474.5 841.1 1473.6 840.2 1472.7 839.3 1471.5 839 1470.4 839.4 1469.8 839.5 1469.8 839.5 1469.5 840.2L1445.5 865.2 1422.4 859.6 1443.3 842.1 1416.2 838.9 1432.4 821.6 1466.2 829.3C1467.5 829.6 1469.1 829.1 1469.7 827.1 1469.9 825.9 1468.9 824.4 1467.5 823.6L1436.9 816.7 1447.9 805.7 1462.5 809.1C1463.9 809.8 1465.4 808.8 1466 806.8 1466.2 805.6 1465.2 804.1 1463.8 803.3L1452.3 800.8 1465.7 786.1C1467.2 785.1 1466.7 783.5 1465.7 782 1465 781.6 1463.7 781.4 1463.2 781.5 1462.6 781.7 1462.1 781.9 1461.7 782.6L1448.1 796.7 1444.7 785.3C1444.2 783.7 1442.3 783.1 1441.2 783.4L1441.2 783.4C1439.5 783.9 1438.8 785.3 1439.3 786.9L1443.7 801.6 1432.7 812.6 1423.9 783.2C1423.4 781.6 1422 780.8 1420.4 781.3S1418 783.2 1418.5 784.8L1428.2 817.5 1412 834.8 1407.1 808.4 1391 829.9 1384.1 807 1407.6 782.2C1408.9 780.6 1408.4 778.9 1407.5 778 1406.6 777.1 1404.8 777 1403.4 778.1L1382.1 800.4 1377.9 786.3 1388.2 774.9C1389.6 773.9 1389.7 772.1 1388.1 770.7 1387.2 769.8 1385.4 769.8 1384 770.8L1376 779.7 1370.3 760.6C1369.8 759 1368.3 758.3 1366.7 758.7S1364.3 760.6 1364.8 762.3L1370.5 781.4 1359.1 778.8C1358.4 778.5 1357.8 778.6 1357.3 778.8 1356.2 779.1 1355.8 779.8 1355.4 780.5 1354.8 782.5 1355.8 784 1357.6 784L1372.5 787.9 1376.9 802.6 1346.7 795C1346.1 795.2 1345.6 795.3 1345 795.5 1344 795.8 1343.6 796.5 1343.2 797.2 1342.6 799.2 1343.6 800.7 1345.4 800.7L1378.7 808.6 1385.5 831.5 1360.2 822.4 1370.6 847.2 1347.6 841.7 1337.8 809C1337.3 807.3 1335.3 806.7 1334.2 807 1332.6 807.5 1331.8 808.9 1332.3 810.6L1341.1 840 1325.9 836.8 1321.5 822.1C1321 820.5 1319.6 819.7 1318 820.2S1315.6 822.1 1316.1 823.8L1319.5 835.2 1300.4 830.8C1299.7 830.4 1299.1 830.6 1298.6 830.8 1298 830.9 1297.1 831.8 1296.9 833.1 1296.7 834.3 1297.2 835.9 1299 836ZM1370.2 831.9L1390.8 839.4 1404 821.8 1408.2 843.7 1429.7 846.2 1413.2 860.6 1421.6 880.7 1400.9 873.2 1387.8 890.8 1383.8 869.4 1362.1 866.4 1378.7 852.5 1370.2 831.9Z" fill="rgba(40, 120, 205, 0.58)"></path><path d="M1121.3 84.3L1130.2 130.5 1123.2 141.5 1094.2 139.5 1088.2 127.7 1103.7 83.2C1103.7 82.6 1103.7 82.6 1103.8 82 1103.8 80.9 1103.3 79.7 1101.7 79 1100 78.9 1098.8 79.4 1098.1 81.1L1084.7 120.1 1075.6 101.8 1081.3 84.5C1081.3 84.5 1081.4 84 1081.4 84 1081.5 82.8 1081 81.7 1079.3 81 1078.2 80.3 1076.4 81.3 1075.7 83L1071.6 94.1 1065.1 80.6C1064.6 79.4 1062.9 78.7 1061.2 79.2S1059.3 81.9 1059.7 83.7L1066.3 96.6 1055.1 93C1053.5 92.4 1051.7 93.4 1051 95 1050.9 96.2 1051.4 97.9 1053 98.6L1070.3 104.3 1079.3 123.2 1040.3 109.7C1038.7 109.1 1036.9 110.1 1036.2 111.2 1036.1 112.9 1036.6 114.6 1038.2 115.3L1082.9 130.2 1088.9 142.6 1073.1 166.1 1059.4 165.2 1028.1 130C1027.1 128.8 1025.4 128.7 1024.2 129.8S1022.8 132.5 1023.9 133.7L1051.5 164.6 1030.5 163.2 1018.8 149.9C1017.8 148.7 1016.1 148.6 1014.3 149.6S1013 152.4 1014 153.6L1022.5 162.7 1007.2 161.7C1005.5 161.6 1004.3 163.2 1004.2 164.9 1004 166.6 1005.1 167.8 1006.8 167.9L1022.1 169 1013.1 176.9C1011.3 177.9 1011.2 179.6 1012.8 180.9 1013.8 182.1 1015.5 182.2 1016.8 181.1L1030.1 169.5 1051.1 170.9 1019.6 197.9C1018.4 198.9 1018.3 201.2 1019.3 202.4S1022.1 203.7 1023.3 202.7L1059 171.4 1072.7 172.3 1085.2 198.2 1077.6 209.1 1031.4 218C1029.7 218.5 1029 220.2 1028.9 221.9 1029.3 223.6 1031 224.3 1032.7 224.4L1073.1 216.3 1061.8 233.2 1043.9 236.5C1042.1 237 1041.4 238.7 1041.3 240.4 1041.8 241.5 1043.4 242.8 1045.2 242.3L1056.7 240.2 1048.5 252.8C1047.8 253.9 1048.3 255.7 1049.3 256.9 1051 257.5 1052.8 257.1 1053.4 256L1061.6 243.4 1064.3 255.6C1064.7 256.7 1066.4 258 1067.5 257.5 1069.3 257.6 1069.9 256.5 1070 254.8 1070 254.8 1070 254.2 1070 254.2L1066.7 236.4 1078.1 219.4 1086.2 259.9C1086.7 261.6 1087.7 262.8 1089.5 262.4 1091.2 261.9 1091.8 260.8 1091.9 259.7 1092 259.1 1092 259.1 1092 259.1L1082.5 212.3 1090.1 201.4 1119 203.3 1124.5 215.1 1109.6 260.3C1108.9 261.4 1109.9 263.2 1111 263.8 1112.7 264.5 1114.5 263.5 1115.2 261.8L1128.6 222.8 1137.6 241.1 1131.9 258.4C1131.2 260 1131.7 261.8 1133.4 261.9 1135.1 262.6 1136.8 261.5 1137.5 260.5L1141.1 248.7 1147.6 262.3C1148.7 263.5 1150.3 264.2 1152.1 263.7 1152.7 263.2 1153.3 262.1 1153.4 260.9 1153.4 260.4 1153.4 260.4 1152.9 259.8L1146.4 246.2 1158.1 249.9C1159.8 250.5 1161 249.5 1161.7 248.4 1161.7 247.8 1161.7 247.8 1161.7 247.2 1161.8 246.1 1161.3 244.9 1160.2 244.3L1142.9 238.6 1133.9 220.3 1172.9 233.7C1174.6 233.8 1176.3 233.4 1176.5 231.7 1177.1 231.2 1177.1 231.2 1177.1 230.6 1177.2 229.5 1176.1 228.2 1175 227.6L1129.8 212.6 1124.3 200.9 1140.2 176.8 1153.3 177.7 1184.5 213.4C1185.6 214.6 1187.8 214.8 1189.1 213.7S1190.4 210.4 1189.4 209.2L1161.8 178.3 1182.2 179.6 1194.4 193C1195.5 194.2 1197.2 194.3 1198.4 193.2 1199.6 192.2 1199.7 190.5 1198.7 189.3L1190.7 180.2 1206 181.2C1207.2 181.3 1209 180.3 1209.1 178.6 1209.2 176.9 1207.6 175 1206.5 175L1191.1 173.9 1200.2 166C1200.8 165.5 1201.4 164.9 1201.5 164.4 1201.5 163.2 1201 162.6 1200.5 162 1199.4 160.8 1197.7 160.7 1196.5 161.8L1182.6 173.4 1162.2 172 1193.6 145C1194.2 144.5 1194.3 143.9 1194.3 142.8 1194.4 142.2 1194.4 141.7 1193.9 141.1 1192.8 139.8 1190.6 139.7 1189.4 140.8L1153.7 171.4 1140.6 170.6 1128 145.2 1135.1 133.7 1181.9 124.9C1183 124.4 1184.2 123.3 1184.3 122.2 1184.4 121.6 1184.4 121.6 1183.8 121.6 1183.9 119.9 1182.3 118.6 1180.5 119.1L1140.1 127.2 1151.5 109.7 1169.4 106.4C1170.6 105.9 1171.2 104.8 1171.3 103.6 1171.3 103.6 1171.3 103.1 1171.3 103.1 1171.5 101.4 1169.8 100.1 1168.1 100.6L1155.9 103.2 1164.2 90.6C1164.8 90.1 1164.8 89.5 1164.9 88.9 1164.9 87.8 1164.4 86.6 1163.9 86.6 1162.3 85.4 1160.5 85.8 1159.3 86.9L1151.1 99.4 1149 87.9C1148.5 86.1 1146.9 84.9 1145.1 85.4 1144 85.8 1142.7 87.5 1143.2 88.6L1146.6 106.5 1135.2 123.5 1127.1 83C1126.6 81.3 1124.9 80.6 1123.2 80.5 1122.1 81 1120.8 82.6 1121.3 84.3ZM1097.2 146L1119.3 147.5 1122.8 147.7 1124.3 150.7 1133.8 170.1 1135.3 173.6 1133.4 176.4 1121.4 194.4 1119.5 197.1 1116.1 196.9 1093.9 195.4 1090.5 195.2 1089 192.2 1079.5 172.8 1077.9 169.8 1079.9 166.5 1091.9 148.5 1093.8 145.8 1097.2 146Z" fill="rgba(40, 120, 205, 0.58)"></path><path d="M315 2449.3L289.8 2500.2 270 2506.4 278.6 2489.3C280 2487.7 278.9 2485.8 277.3 2484.3 275.7 2483.9 273.3 2484.6 272.8 2486.1L260.6 2509.5 241.4 2516.2 245.7 2496.3 268.1 2481.9C268.1 2481.9 268.5 2481.3 268.5 2481.3 269.5 2480.3 269.4 2478.3 268.8 2476.8 267.2 2475.4 265.6 2475 263.7 2476.1L247.7 2486.6 252 2466.7 299 2435.2C299 2435.2 300 2435.1 300 2435.1 301 2434.1 300.9 2432.1 300.3 2430.6 299.1 2428.6 296.6 2428.3 295.2 2429.9L254 2457 258.6 2432.6 277 2420.4C277 2420.4 277 2420.4 277.5 2419.8 278.4 2418.8 278.8 2417.2 278.2 2415.8 276.6 2414.4 274.6 2413.5 272.6 2414.6L260.5 2422.9 264 2405C264.9 2403 263.3 2401.6 261.7 2401.1 259.7 2400.3 257.7 2401.4 257.4 2403.9L253.4 2421.3 246.1 2409.1C244.5 2407.7 242.4 2406.8 241 2408.4 239.1 2409.5 238.7 2411.1 239.8 2413L252 2431.4 246.8 2455.4 219.2 2413.8C218.6 2412.3 216 2411.9 214.1 2413 213.1 2414.1 212.3 2416.2 213.4 2418.1L244.9 2465.1 240.5 2485 230 2469C228.9 2467.1 226.9 2467.2 224.9 2468.3 223.5 2468.9 223.1 2471.4 223.7 2472.9L238.6 2494.7 234.8 2515.1 219.4 2501.4 217.8 2475.3C217.7 2473.3 216.1 2471.9 214.1 2472 212.5 2471.6 210.7 2473.7 210.8 2475.7L211.9 2494.8 196.5 2481.1 193.6 2424.3C193.5 2422.3 191.9 2420.9 189.9 2421 187.9 2421.2 186.5 2422.8 186.6 2424.8L189 2474.5 171 2458.4 169.6 2436.3C169.5 2434.3 167.9 2432.9 165.9 2433 163.9 2433.2 162.5 2434.8 162.6 2436.8L163 2451.4 149.7 2439.6C148.1 2438.1 146.1 2438.3 144.7 2439.9 143.2 2441.4 143.4 2443.5 145 2444.9L158.3 2456.7 144.2 2457.5C142.2 2457.6 140.8 2459.2 140.9 2461.2S142.6 2464.7 144.6 2464.5L165.7 2463.3 184.3 2479.8 135.1 2482.7C133.1 2482.9 131.7 2484.4 131.8 2486.5 131.9 2488.5 133.5 2489.9 135.5 2489.8L191.8 2486.4 207.2 2500.1 188.1 2501.2C186.1 2501.4 184.7 2502.9 184.8 2505 184.9 2507 186.5 2508.4 188.5 2508.3L214.6 2506.7 229.5 2519.9 210.8 2526.1 186.9 2514.4C185.3 2514 182.9 2514.6 182.5 2516.2 181.6 2518.2 182.2 2519.7 183.8 2521.1L200.9 2529.7 182.1 2535.8 131.3 2510.7C129.2 2509.8 127.7 2510.4 126.3 2512 125.4 2514 126.5 2516 127.6 2516.9L172.3 2539.5 148.5 2546.9 129.3 2537.5C127.7 2536.1 125.8 2537.2 124.4 2538.8 124 2540.3 124.6 2542.8 126.7 2543.7L139.1 2550 122.4 2556C120.4 2556.1 119.5 2558.2 120.1 2560.7 120.7 2562.2 122.8 2563.1 124.3 2562.5L141.6 2556.9 134.8 2569.9C133.9 2572 135 2573.9 136.6 2574.3 138.2 2575.7 139.6 2575.1 140.6 2574.1 141 2573.6 141 2573.6 141.5 2573L151 2553.8 174.7 2546.4 152.6 2590.5C151.2 2592.1 152.3 2594 153.9 2595.5 155.5 2595.9 156.9 2595.3 157.9 2594.2 158.4 2593.7 158.4 2593.7 158.4 2593.7L184.5 2542.8 203.3 2536.6 194.8 2553.7C193.9 2555.8 194.5 2557.3 196.1 2558.7 197.6 2559.1 199.6 2559 200.6 2557.9 201 2557.4 201 2557.4 201.5 2556.9L213.2 2533 232 2526.8 228.1 2546.2 206.3 2561.1C204.3 2562.2 204 2564.8 204.6 2566.2 206.2 2567.7 208.2 2568.5 209.7 2566.9L225.7 2556.4 222.3 2576.3 174.3 2607.8C172.8 2608.4 172.5 2611 173.1 2612.4 174.7 2613.9 176.7 2614.7 178.7 2613.6L219.9 2586.5 214.8 2610.5 196.8 2622.1C194.9 2623.2 194.5 2625.8 196.1 2627.2 196.7 2628.7 198.8 2629.6 200.7 2628.4L212.8 2620.2 209.4 2638C208.9 2639.5 210.1 2641.5 212.1 2642.4 213.1 2642.3 214.6 2641.7 215.6 2640.6 215.6 2640.6 216 2640.1 216.5 2639.6L220 2621.7 228.3 2633.8C228.8 2635.3 231.4 2635.7 232.9 2635.1 233.3 2634.5 233.3 2634.5 233.3 2634.5 234.7 2632.9 234.6 2630.9 233.6 2630L221.9 2612.1 226.5 2587.6 254.2 2629.3C255.8 2630.7 257.3 2631.1 259.3 2630 259.3 2630 259.7 2629.4 259.7 2629.4 260.7 2628.4 261.1 2626.8 260 2624.9L228.9 2577.4 232.8 2558 243.3 2574C244.9 2575.4 247 2576.3 248.4 2574.7 248.9 2575.2 249.4 2574.7 249.4 2574.7 250.4 2573.6 250.2 2571.6 249.6 2570.1L234.7 2548.3 239.1 2528.4 254 2541.6 255.5 2567.7C255.7 2569.7 257.8 2571.6 259.8 2571.5 261.3 2570.9 262.7 2569.3 263.1 2567.8L261.4 2548.2 276.9 2561.9 280.2 2618.2C280.3 2620.2 281.9 2621.6 283.9 2621.5 285.9 2621.3 287.4 2619.7 287.2 2617.7L284.3 2568.5 302.9 2585.1 304.2 2606.1C304.3 2608.2 305.9 2609.6 307.9 2609.4S311.3 2607.7 311.2 2605.7L310.4 2591.7 323.7 2603.5C325.3 2604.9 327.3 2604.8 328.7 2603.2 330.1 2601.6 330 2599.6 328.4 2598.2L315.1 2586.4 329.6 2585C330.6 2584.9 331.6 2584.9 332.1 2584.3 332.6 2583.8 333 2582.3 332.9 2581.3 332.8 2579.3 331.2 2577.8 329.2 2578L307.6 2579.7 289 2563.2 338.7 2559.8C339.7 2559.7 340.7 2559.6 341.2 2559.1 341.6 2558.6 342.1 2557 342 2556 341.9 2554 340.3 2552.6 338.3 2552.7L281.6 2556.6 266.2 2542.9 285.8 2542.3C286.8 2542.2 287.7 2541.1 288.2 2540.6 288.7 2540.1 289.1 2539.5 289.1 2538.5 288.9 2536.5 286.8 2534.6 285.3 2535.2L258.7 2536.3 243.8 2523.1 263.1 2516.4 286.5 2528.6C288 2529 290 2528.9 290.9 2527.8 291.4 2527.3 291.4 2527.3 290.9 2526.8 292.3 2525.2 291.7 2522.8 289.6 2521.9L272.5 2513.3 291.7 2506.6 342.6 2532.8C344.2 2533.2 345.6 2532.7 346.6 2531.6 347.1 2531.1 347.1 2531.1 347.1 2531.1 347.9 2529 347.8 2527 345.8 2526.1L301.1 2503.6 324.8 2496.1 344 2505.5C346.1 2506.4 347.6 2505.8 348.5 2504.8 348.5 2504.8 349 2504.2 349 2504.2 349.9 2502.2 348.7 2500.2 347.7 2499.3L334.2 2493 351.5 2487.5C352 2486.9 352.5 2486.4 352.9 2485.9 353.4 2485.3 353.8 2483.8 353.7 2482.8 352.6 2480.9 351 2479.4 349.1 2480.6L331.8 2486.1 338.6 2473.1C339.4 2471.1 338.3 2469.1 337.3 2468.2 335.2 2467.3 333.2 2468.4 331.8 2470L322.4 2489.2 299.2 2497.1 321.2 2453C322.1 2450.9 321.5 2448.5 319.9 2448 317.9 2447.2 315.9 2447.3 315 2449.3Z" fill="rgba(40, 120, 205, 0.58)"></path><path d="M1360.1 1788.3L1367.3 1812.1 1352.6 1809.3C1351.1 1808.9 1349.1 1810 1348.2 1812.1 1348.3 1814.1 1349.4 1816 1351.4 1815.9L1369.7 1820 1376.2 1838.3 1338 1829.7C1336 1829.8 1334 1830.9 1333.6 1832.4 1333.2 1835 1334.3 1836.9 1336.4 1836.8L1378.6 1846.3 1387.6 1874.5 1355.3 1863.6 1369.5 1894.6 1340.5 1888.5 1326.8 1847.4C1327.3 1846.9 1326.8 1846.4 1326.2 1845.9 1325.2 1844.9 1323.6 1844.5 1322.2 1845.1 1320.7 1845.7 1319.8 1847.7 1319.9 1849.7L1332.3 1886.9 1313.5 1882.3 1307.5 1864.5C1307.5 1863.5 1307 1863 1306.4 1862.5 1305.9 1862 1304.4 1861.6 1302.9 1862.2 1301.4 1862.8 1300.5 1864.8 1301.1 1866.3L1305.3 1880.7 1280.9 1875.9C1278.9 1875 1277.4 1876.6 1276.5 1878.6 1276.1 1880.1 1277.2 1882.1 1279.7 1882.5L1303.7 1887.8 1293.7 1898.9C1292.2 1900.5 1292.9 1903 1293.9 1903.9 1295.5 1905.3 1297.5 1905.2 1298.9 1903.7L1311.8 1889.4 1330.7 1894 1304.9 1922.5C1303.5 1924.1 1303.6 1926.1 1305.2 1927.5 1306.2 1928.5 1308.8 1928.8 1310.2 1927.3L1338.8 1895.6 1367.8 1901.7 1342.8 1924.1 1376.2 1927.5 1356.1 1949.6 1314.4 1940.6C1311.9 1940.3 1310.4 1941.9 1310 1943.4 1309.6 1944.9 1310.7 1946.9 1312.8 1947.8L1350.9 1955.4 1338 1969.7 1319.2 1966.1C1317.2 1965.2 1315.2 1966.3 1314.8 1968.8 1314.4 1970.3 1315.5 1972.3 1318 1972.7L1332.3 1976 1315.6 1994.5C1314.2 1996 1314.3 1998 1315.9 1999.5S1319.5 2000.8 1320.9 1999.2L1337.6 1980.8 1342.3 1994.6C1342.9 1997.1 1345 1998 1346.5 1997.4 1349 1996.8 1349.9 1994.7 1348.8 1992.8L1343.3 1974.4 1356.2 1960.2 1367.6 1997.4C1368.7 1999.3 1370.8 2000.2 1372.3 1999.7 1374.7 1999 1375.7 1997 1374.5 1995L1361.4 1954.4 1381.4 1932.2 1388.1 1965.1 1407.9 1937.9 1416.9 1966.2 1388.3 1997.8C1386.9 1999.4 1387.5 2001.9 1388.5 2002.9 1390.1 2004.3 1392.1 2004.2 1393.6 2002.6L1419.8 1973.6 1425.8 1992.4 1412.9 2006.7C1411.5 2008.2 1411.6 2010.3 1413.1 2011.7 1414.2 2012.6 1416.7 2013 1418.2 2011.4L1428.2 2000.4 1435.9 2023.6C1436.5 2026.1 1438.6 2027 1440.5 2025.9 1442 2025.3 1443.5 2023.7 1442.4 2021.8L1435.1 1998 1449.9 2000.8C1451.4 2001.2 1453.3 2000.1 1453.8 1998.6 1454.2 1997 1453.6 1995.5 1453.1 1995.1 1452.6 1994.6 1452 1994.1 1451 1994.2L1432.7 1990.1 1426.2 1971.8 1464.4 1980.4C1466.4 1980.3 1468.4 1979.2 1468.8 1977.7 1469.3 1976.1 1468.7 1974.6 1467.6 1973.7 1467.1 1973.2 1467.1 1973.2 1466.1 1973.3L1423.8 1963.8 1414.8 1935.6 1447.1 1946.5 1433 1915.5 1462 1921.6 1475.6 1962.7C1476.2 1964.2 1477.8 1965.6 1480.3 1965 1481.8 1964.4 1482.7 1962.4 1482.6 1960.4L1470.1 1923.2 1489 1927.8 1494.9 1945.6C1495 1947.6 1497.1 1948.5 1499.5 1947.9 1501 1947.3 1501.9 1945.3 1501.8 1943.3L1497.1 1929.4 1521.5 1934.2C1523.6 1935.1 1525 1933.5 1525.9 1931.5 1525.9 1930.5 1525.3 1929 1524.7 1928.5 1524.2 1928 1523.7 1927.6 1522.7 1927.6L1498.8 1922.3 1508.8 1911.2C1510.2 1909.6 1509.6 1907.1 1508.5 1906.2L1508.5 1906.2C1506.9 1904.7 1504.9 1904.8 1503.5 1906.4L1490.6 1920.7 1471.8 1916.1 1497.5 1887.6C1498.9 1886 1498.8 1884 1497.3 1882.6S1493.7 1881.2 1492.2 1882.8L1463.6 1914.5 1434.6 1908.4 1459.7 1886 1426.3 1882.6 1446.3 1860.5 1488 1869.4C1490.6 1869.8 1492 1868.2 1492.4 1866.7 1492.9 1865.2 1491.7 1863.2 1489.7 1862.3L1452 1854.1 1464.4 1840.4 1483.2 1844C1485.3 1844.9 1487.2 1843.8 1487.6 1841.3 1488 1839.7 1486.9 1837.8 1484.9 1836.9L1470.1 1834.1 1486.8 1815.6C1488.3 1814.1 1488.2 1812 1486.6 1810.6S1483 1809.3 1481.6 1810.9L1464.9 1829.3 1460.1 1815.5C1460.1 1814.5 1459.6 1814 1459 1813.5 1458 1812.6 1457 1812.6 1456 1812.7 1453.5 1813.3 1452.6 1815.4 1453.7 1817.3L1459.1 1835.7 1446.3 1849.9 1434.8 1812.7C1434.3 1812.2 1433.8 1811.8 1433.2 1811.3 1432.2 1810.3 1431.2 1810.4 1430.2 1810.4 1427.7 1811.1 1426.8 1813.1 1427.9 1815.1L1441 1855.7 1421 1877.9 1414.3 1845 1394.5 1872.2 1385.5 1843.9 1414.2 1812.3C1415.6 1810.7 1415 1808.2 1413.9 1807.2 1412.3 1805.8 1410.3 1805.9 1408.9 1807.5L1383.1 1836 1376.7 1817.7 1389.5 1803.4C1391 1801.8 1390.9 1799.8 1389.3 1798.4S1385.7 1797.1 1384.3 1798.7L1374.3 1809.7 1366.5 1786.5C1366.5 1785.5 1366 1785 1365.4 1784.5 1364.9 1784 1363.4 1783.6 1361.9 1784.2 1360.4 1784.8 1359 1786.3 1360.1 1788.3ZM1410.6 1861.8L1416 1888.7 1443.3 1891.3 1422.6 1910 1433.9 1934.6 1407.8 1926.4 1391.8 1948.3 1386.4 1921.4 1359.1 1918.8 1379.3 1900.6 1368.5 1875.5 1394.1 1884.3 1410.6 1861.8Z" fill="rgba(40, 120, 205, 0.58)"></path></g><defs><mask id="SvgjsMask1008"><rect width="1440" height="2560" fill="#ffffff"></rect></mask><filter id="SvgjsFilter1009"><feGaussianBlur stdDeviation="1"></feGaussianBlur></filter></defs></svg>